<?xml version="1.0" encoding="utf-8"?>
<!-- Generator: Adobe Illustrator 16.0.0, SVG Export Plug-In . SVG Version: 6.00 Build 0)  -->
<!DOCTYPE svg PUBLIC "-//W3C//DTD SVG 1.1//EN" "http://www.w3.org/Graphics/SVG/1.1/DTD/svg11.dtd">
<svg version="1.1" id="Layer_1" xmlns="http://www.w3.org/2000/svg" xmlns:xlink="http://www.w3.org/1999/xlink" x="0px" y="0px"
	 viewBox="0 0 500 500" enable-background="new 0 0 500 500" xml:space="preserve">
<path fill-rule="evenodd" clip-rule="evenodd" d="M471.771,250.588c0,21.239-0.168,42.479,0.077,63.718
	c0.108,9.43-3.534,16.085-11.43,21.326c-65.712,43.613-131.291,87.421-196.923,131.156c-9.972,6.645-16.364,6.624-26.42-0.08
	c-65.628-43.737-131.208-87.547-196.918-131.162c-7.922-5.258-11.35-11.993-11.311-21.39c0.176-42.478,0.188-84.959-0.008-127.437
	c-0.045-9.67,3.575-16.463,11.685-21.841c65.383-43.355,130.624-86.924,195.915-130.417c11.069-7.375,16.79-7.355,27.95,0.081
	C329.678,78.041,394.916,121.616,460.3,164.97c8.143,5.398,11.681,12.263,11.557,21.899
	C471.584,208.106,471.771,229.347,471.771,250.588z M82.273,182.917c21.905,14.66,42.946,28.84,64.184,42.721
	c1.365,0.892,4.677,0.13,6.349-0.973c24.667-16.281,49.153-32.838,73.845-49.081c3.656-2.405,4.687-5.057,4.662-9.179
	c-0.158-25.201-0.071-50.404-0.097-75.605c-0.001-1.957-0.241-3.911-0.436-6.865C180.982,117.126,132.04,149.748,82.273,182.917z
	 M270.366,84.235c-0.465,1.309-0.818,1.842-0.818,2.377c-0.046,27.492-0.108,54.985,0.037,82.476c0.01,1.7,1.273,4.035,2.685,4.991
	c26.37,17.832,52.849,35.5,79.579,53.384c22.036-14.745,43.966-29.418,66.569-44.542
	C368.769,149.827,319.727,117.137,270.366,84.235z M82.27,317.779c49.798,33.187,98.853,65.881,148.94,99.26
	c0-29.821,0.043-58.104-0.127-86.387c-0.008-1.451-1.55-3.353-2.902-4.265c-25.371-17.102-50.799-34.117-76.317-50.997
	c-1.34-0.887-4.135-1.212-5.344-0.417C125.318,288.913,104.258,303.07,82.27,317.779z M269.882,416.785
	c49.828-33.213,98.879-65.911,148.536-99.012c-22.562-15.091-44.491-29.759-66.565-44.525
	c-26.693,17.855-53.193,35.485-79.501,53.394c-1.712,1.165-2.752,4.472-2.769,6.791c-0.192,25.824-0.129,51.649-0.107,77.476
	C269.478,412.485,269.688,414.062,269.882,416.785z M183.063,250.353c22.037,14.726,43.423,29.099,64.98,43.214
	c1.29,0.844,4.346,0.243,5.889-0.752c11.354-7.329,22.535-14.928,33.767-22.446c9.802-6.562,19.597-13.126,29.916-20.038
	c-22.021-14.716-43.409-29.089-64.965-43.205c-1.287-0.843-4.34-0.238-5.885,0.756c-11.008,7.1-21.834,14.479-32.723,21.763
	C203.894,236.435,193.742,243.215,183.063,250.353z M67.613,218.908c0,21.352,0,41.696,0,62.892
	c15.971-10.699,31.188-20.896,46.967-31.468C98.672,239.689,83.531,229.559,67.613,218.908z M386.088,250.351
	c16.048,10.731,31.302,20.93,47.001,31.428c0-21.342,0-41.686,0-62.867C417.213,229.529,402.08,239.653,386.088,250.351z"/>
<path fill-rule="evenodd" clip-rule="evenodd" fill="#FFFFFF" d="M82.273,182.917c49.766-33.169,98.709-65.791,148.507-98.982
	c0.195,2.954,0.435,4.909,0.436,6.865c0.025,25.201-0.061,50.404,0.097,75.605c0.025,4.122-1.005,6.773-4.662,9.179
	c-24.692,16.243-49.178,32.8-73.845,49.081c-1.672,1.104-4.984,1.865-6.349,0.973C125.22,211.757,104.179,197.577,82.273,182.917z"
	/>
<path fill-rule="evenodd" clip-rule="evenodd" fill="#FFFFFF" d="M270.366,84.235c49.36,32.902,98.402,65.591,148.052,98.686
	c-22.604,15.124-44.533,29.797-66.569,44.542c-26.73-17.884-53.209-35.552-79.579-53.384c-1.411-0.956-2.675-3.291-2.685-4.991
	c-0.146-27.491-0.083-54.984-0.037-82.476C269.548,86.078,269.901,85.544,270.366,84.235z"/>
<path fill-rule="evenodd" clip-rule="evenodd" fill="#FFFFFF" d="M82.27,317.779c21.988-14.709,43.048-28.866,64.25-42.806
	c1.209-0.795,4.003-0.47,5.344,0.417c25.518,16.88,50.946,33.896,76.317,50.997c1.353,0.912,2.895,2.813,2.902,4.265
	c0.171,28.282,0.127,56.565,0.127,86.387C181.122,383.66,132.068,350.966,82.27,317.779z"/>
<path fill-rule="evenodd" clip-rule="evenodd" fill="#FFFFFF" d="M269.882,416.785c-0.194-2.723-0.404-4.3-0.406-5.877
	c-0.021-25.826-0.085-51.651,0.107-77.476c0.017-2.319,1.057-5.626,2.769-6.791c26.308-17.908,52.808-35.538,79.501-53.394
	c22.074,14.767,44.004,29.435,66.565,44.525C368.761,350.874,319.71,383.572,269.882,416.785z"/>
<path fill-rule="evenodd" clip-rule="evenodd" fill="#FFFFFF" d="M183.063,250.353c10.679-7.138,20.831-13.918,30.979-20.708
	c10.889-7.283,21.715-14.663,32.723-21.763c1.545-0.995,4.598-1.6,5.885-0.756c21.556,14.116,42.943,28.489,64.965,43.205
	c-10.319,6.912-20.114,13.477-29.916,20.038c-11.231,7.519-22.412,15.117-33.767,22.446c-1.543,0.995-4.599,1.596-5.889,0.752
	C226.486,279.452,205.1,265.079,183.063,250.353z"/>
<path fill-rule="evenodd" clip-rule="evenodd" fill="#FFFFFF" d="M67.613,218.908c15.917,10.65,31.059,20.781,46.967,31.424
	c-15.778,10.572-30.996,20.769-46.967,31.468C67.613,260.604,67.613,240.26,67.613,218.908z"/>
<path fill-rule="evenodd" clip-rule="evenodd" fill="#FFFFFF" d="M386.088,250.351c15.992-10.698,31.125-20.821,47.001-31.439
	c0,21.182,0,41.525,0,62.867C417.39,271.28,402.136,261.082,386.088,250.351z"/>
</svg>
